<svg width="514" height="846" viewBox="0 0 514 846" fill="none" xmlns="http://www.w3.org/2000/svg">
<path d="M194.984 0H434.806L275.239 310.337H514L1.62476 846L239.704 379.493L0 379.48L194.984 0Z" fill="black"/>
<path d="M343.873 159H231.425L177.741 263.69L252.787 264.261L232.058 304.633H178.755L167.696 282.734L140 337.08H252.399L306.126 232.385L230.81 231.814L251.533 191.447H302.416L316.264 213.168L343.873 159Z" fill="white"/>
<path d="M381 304.633H305.592L288.936 337.086H327.58L311.508 368.398H272.864L288.936 337.086H252.393L140.756 556L306.237 450.267L331.482 401.09L324.877 382.887L348.131 368.637L381 304.633ZM279.942 429.878L222.043 467.396L256.067 401.09H294.711L279.942 429.878Z" fill="#5627FF"/>
</svg>
