<svg width="216" height="356" viewBox="0 0 216 356" fill="none" xmlns="http://www.w3.org/2000/svg">
<path d="M181.923 0.698654H81.6376L33.7606 94.1689L100.689 94.6787L82.2019 130.725H34.6647L24.8022 111.172L0.102081 159.695H100.343L148.259 66.2188L81.0896 65.709L99.5709 29.6683H144.949L157.299 49.0618L181.923 0.698654Z" fill="white"/>
<path d="M215.033 130.725H147.782L132.928 159.7H167.392L153.058 187.656H118.595L132.928 159.7H100.338L0.776031 355.153L148.357 260.751L170.871 216.844L164.981 200.592L185.72 187.869L215.033 130.725ZM124.907 242.547L73.2709 276.044L103.615 216.844H138.078L124.907 242.547Z" fill="#5627FF"/>
</svg>
