<svg width="764" height="356" viewBox="0 0 764 356" fill="none" xmlns="http://www.w3.org/2000/svg">
<path d="M181.923 0.698654H81.6375L33.7606 94.1689L100.689 94.6787L82.2019 130.725H34.6646L24.8021 111.172L0.102051 159.695H100.343L148.259 66.2188L81.0896 65.709L99.5708 29.6683H144.949L157.299 49.0618L181.923 0.698654Z" fill="white"/>
<path d="M215.033 130.725H147.782L132.928 159.7H167.392L153.058 187.656H118.595L132.928 159.7H100.338L0.776001 355.153L148.357 260.751L170.871 216.844L164.981 200.592L185.72 187.869L215.033 130.725ZM124.907 242.547L73.2709 276.044L103.614 216.844H138.078L124.907 242.547Z" fill="#5627FF"/>
<path d="M363.574 58.5886C361.025 57.0689 358.397 55.6874 355.7 54.4501C353.172 53.335 350.577 52.3776 347.931 51.5833C345.25 50.7557 342.462 50.3272 339.657 50.3116C337.862 50.246 336.076 50.5909 334.435 51.3202C333.791 51.6157 333.251 52.0998 332.887 52.7084C332.523 53.3171 332.352 54.0218 332.397 54.7296C332.391 55.4642 332.576 56.1877 332.933 56.8294C333.291 57.4712 333.808 58.0093 334.435 58.3913C336.23 59.5152 338.182 60.3667 340.227 60.9182C342.729 61.6747 345.722 62.5992 349.207 63.6919C354.226 65.1403 359.088 67.0849 363.721 69.4967C367.528 71.4457 370.772 74.3366 373.146 77.8944C375.337 81.3039 376.433 85.8261 376.433 91.461C376.433 96.8512 375.456 101.375 373.502 105.033C371.656 108.579 368.939 111.597 365.606 113.804C362.225 116.027 358.476 117.63 354.533 118.54C350.443 119.508 346.254 119.995 342.051 119.992C337.499 119.969 332.959 119.521 328.49 118.655C323.836 117.78 319.256 116.545 314.793 114.96C310.601 113.485 306.555 111.626 302.705 109.407L313.401 87.624C316.41 89.4538 319.519 91.1119 322.715 92.5902C325.751 93.954 328.878 95.1042 332.074 96.0326C335.441 97.0422 338.936 97.5574 342.451 97.5619C345.169 97.5619 347.057 97.2166 348.117 96.5259C348.602 96.2526 349.006 95.8544 349.287 95.3725C349.567 94.8907 349.714 94.3427 349.711 93.7852C349.711 92.0165 348.776 90.6461 346.906 89.6741C344.551 88.5335 342.095 87.6159 339.569 86.9333C336.556 86.049 333.224 85.0166 329.575 83.8363C324.308 82.064 319.978 80.0541 316.584 77.8067C313.438 75.8367 310.851 73.0902 309.072 69.8311C307.461 66.7542 306.656 63.0213 306.656 58.6324C306.656 51.9743 308.225 46.4087 311.363 41.9359C314.498 37.4741 318.791 33.9528 323.778 31.7513C329.005 29.4164 334.673 28.2331 340.397 28.2815C344.713 28.2678 349.014 28.802 353.196 29.8711C357.148 30.8802 361.019 32.1811 364.779 33.763C368.388 35.2905 371.551 36.7339 374.269 38.0933L363.574 58.5886Z" fill="white"/>
<path d="M428.129 119.992C421.681 120.083 415.292 118.757 409.412 116.106C403.947 113.62 399.033 110.068 394.958 105.658C390.96 101.347 387.802 96.3279 385.644 90.8581C383.495 85.4508 382.395 79.6842 382.4 73.8655C382.377 67.9643 383.545 62.1193 385.835 56.681C388.114 51.2675 391.375 46.3222 395.451 42.0948C399.61 37.7785 404.587 34.3348 410.092 31.965C415.946 29.463 422.256 28.2067 428.622 28.276C434.847 28.1734 441.022 29.4048 446.733 31.8876C452.443 34.3703 457.555 38.0469 461.727 42.6704C465.675 47.018 468.803 52.0453 470.96 57.5087C473.102 62.8775 474.203 68.6054 474.203 74.3862C474.222 80.2437 473.075 86.0463 470.828 91.4556C468.592 96.8751 465.354 101.824 461.284 106.042C457.132 110.355 452.18 113.816 446.703 116.232C440.848 118.788 434.517 120.07 428.129 119.992ZM407.626 74.1341C407.619 77.1314 408.049 80.1137 408.903 82.9867C409.709 85.7448 411.008 88.3337 412.738 90.6278C414.439 92.8838 416.639 94.715 419.165 95.9778C422.08 97.2885 425.241 97.9612 428.437 97.9508C431.633 97.9404 434.789 97.2472 437.696 95.9175C440.255 94.6187 442.461 92.7169 444.123 90.3757C445.79 88.0156 447.039 85.3865 447.816 82.603C448.621 79.7643 449.029 76.8273 449.027 73.8764C449.035 70.9064 448.607 67.9513 447.755 65.1061C446.937 62.3713 445.638 59.8042 443.92 57.5252C442.211 55.2677 439.984 53.4552 437.427 52.241C434.557 50.9133 431.422 50.259 428.261 50.328C425.063 50.2447 421.893 50.9447 419.028 52.3671C416.507 53.6676 414.309 55.5162 412.596 57.7773C410.876 60.0778 409.602 62.6809 408.842 65.4514C408.039 68.2758 407.63 71.1976 407.626 74.1341Z" fill="white"/>
<path d="M479.825 73.2296C479.831 67.6675 480.889 62.1567 482.943 56.988C485.048 51.6423 488.136 46.7392 492.049 42.5333C496.155 38.1198 501.116 34.5876 506.629 32.1514C512.36 29.5641 518.833 28.2705 526.047 28.2705C534.704 28.2705 542.258 30.0739 548.709 33.6807C555.16 37.2876 559.956 42.0656 563.097 48.0148L544.129 61.5157C543.215 58.8183 541.559 56.4337 539.351 54.6364C537.354 53.0653 535.06 51.9166 532.606 51.2599C530.301 50.6395 527.925 50.319 525.538 50.3061C522.333 50.2229 519.159 50.9447 516.305 52.4055C513.789 53.7438 511.611 55.6392 509.939 57.9473C508.273 60.2621 507.023 62.8497 506.246 65.5939C505.449 68.3242 505.042 71.153 505.035 73.997C505.022 77.0671 505.495 80.1197 506.437 83.0415C507.318 85.8362 508.7 88.4476 510.514 90.7484C512.28 92.9842 514.527 94.7923 517.089 96.0381C519.81 97.3391 522.796 97.992 525.812 97.9456C528.187 97.9301 530.547 97.5606 532.814 96.8493C535.191 96.1256 537.401 94.9348 539.312 93.3467C541.346 91.6148 542.884 89.373 543.767 86.8511L564.04 98.9487C562.171 103.479 559.085 107.404 555.125 110.29C550.864 113.484 546.083 115.919 540.994 117.487C535.93 119.11 530.647 119.948 525.329 119.97C518.972 120.047 512.68 118.675 506.93 115.958C501.482 113.365 496.594 109.73 492.542 105.258C488.526 100.854 485.339 95.7604 483.134 90.2222C480.958 84.8209 479.835 79.0531 479.825 73.2296Z" fill="white"/>
<path d="M572.774 119.356V28.9118H597.605V119.356H572.774Z" fill="white"/>
<path d="M634.042 28.9118H661.799L690.581 119.356H665.377L660.703 101.646H635.138L630.469 119.356H605.128L634.042 28.9118ZM656.325 85.0861L647.92 53.2387L639.521 85.0861H656.325Z" fill="white"/>
<path d="M698.066 119.356V28.9118H722.897V97.699H763.898V119.356H698.066Z" fill="white"/>
<path d="M385.726 209.351C385.726 214.789 384.265 219.205 381.342 222.6C378.42 225.995 374.494 228.5 369.562 230.115C364.291 231.779 358.789 232.595 353.262 232.532H308.826V142.088H361.283C365.223 141.993 369.088 143.176 372.302 145.459C375.389 147.704 377.843 150.711 379.425 154.186C381.057 157.653 381.904 161.437 381.907 165.269C381.887 169.518 380.767 173.69 378.658 177.378C376.472 181.299 373.048 184.383 368.921 186.148C374.101 187.679 378.196 190.354 381.206 194.173C384.215 197.992 385.722 203.051 385.726 209.351ZM333.674 163.236V177.12H350.61C351.695 177.132 352.774 176.946 353.793 176.572C354.846 176.161 355.739 175.423 356.341 174.467C357.02 173.448 357.36 172.004 357.36 170.137C357.427 168.751 357.143 167.37 356.533 166.124C356.031 165.203 355.268 164.45 354.341 163.959C353.416 163.485 352.389 163.244 351.35 163.257L333.674 163.236ZM360.522 204.253C360.551 202.871 360.268 201.499 359.694 200.241C359.191 199.156 358.424 198.214 357.464 197.5C356.506 196.816 355.354 196.458 354.177 196.481H333.646V211.637H353.256C354.542 211.655 355.812 211.35 356.949 210.749C358.041 210.161 358.947 209.277 359.563 208.2C360.227 206.987 360.556 205.619 360.516 204.237L360.522 204.253Z" fill="#5627FF"/>
<path d="M461.108 210.881V232.532H396.679V142.088H459.963V163.74H421.505V176.479H454.38V196.607H421.505V210.859L461.108 210.881Z" fill="#5627FF"/>
<path d="M543.088 163.745H517.116V232.532H492.285V163.745H466.182V142.093H543.088V163.745Z" fill="#5627FF"/>
<path d="M549.345 214.065L590.345 163.745H551.257V142.093H620.294V160.561L581.836 210.881H621.056V232.532H549.345V214.065Z" fill="#5627FF"/>
</svg>
