<svg width="93" height="399" viewBox="0 0 93 399" fill="none" xmlns="http://www.w3.org/2000/svg">
<rect width="93" height="399" fill="black"/>
<path d="M51.2534 91.0838C51.7552 90.2414 52.211 89.3724 52.6187 88.4807C52.988 87.6466 53.3056 86.7906 53.5694 85.9174C53.8432 85.0329 53.9848 84.1128 53.9897 83.1868C54.0117 82.5945 53.8972 82.0051 53.655 81.4641C53.558 81.2512 53.3985 81.0728 53.1979 80.9526C52.9972 80.8324 52.7647 80.776 52.5312 80.7909C52.2892 80.7891 52.0508 80.8502 51.8395 80.9682C51.6282 81.0862 51.4511 81.2571 51.3256 81.4641C50.9547 82.0564 50.6734 82.7004 50.4909 83.3751C50.2373 84.2003 49.9325 85.1879 49.5763 86.3377C49.0983 87.9938 48.4568 89.5983 47.6614 91.1276C47.0188 92.383 46.0657 93.4533 44.8928 94.2366C43.7696 94.9655 42.2782 95.3293 40.4185 95.328C38.6438 95.328 37.1517 95.006 35.9424 94.3621C34.7732 93.7527 33.778 92.8563 33.0501 91.757C32.3171 90.6408 31.7879 89.4034 31.4871 88.1023C31.1686 86.7526 31.0084 85.3703 31.0098 83.9836C31.0167 82.4816 31.1644 80.9837 31.451 79.5093C31.7392 77.9747 32.1461 76.4648 32.6679 74.9932C33.153 73.6088 33.7648 72.2721 34.4953 71L41.6735 74.5254C41.0697 75.516 40.5225 76.5401 40.0344 77.5926C39.5826 78.5941 39.2013 79.6259 38.8935 80.6806C38.5602 81.7911 38.3898 82.944 38.3877 84.1034C38.3877 84.9984 38.5018 85.6214 38.73 85.9726C38.82 86.1323 38.9509 86.2652 39.1094 86.3574C39.2678 86.4497 39.448 86.498 39.6313 86.4974C40.2157 86.4974 40.6676 86.1893 40.9871 85.5732C41.3678 84.798 41.6752 83.9888 41.9055 83.1564C42.1971 82.1613 42.5375 81.0622 42.9266 79.8592C43.5123 78.1212 44.1734 76.6925 44.9099 75.5732C45.5588 74.5369 46.4639 73.6855 47.5378 73.1012C48.552 72.5688 49.7829 72.3025 51.2306 72.3025C53.4287 72.3025 55.2669 72.8204 56.745 73.8561C58.2171 74.8883 59.3789 76.3033 60.105 77.9482C60.8737 79.6726 61.2628 81.5422 61.2459 83.4302C61.2499 84.8545 61.0735 86.2735 60.7211 87.6535C60.3889 88.9575 59.9605 90.235 59.4394 91.4756C58.9324 92.6659 58.4563 93.7098 58.0114 94.6074L51.2534 91.0838Z" fill="white"/>
<path d="M31.0024 112.386C30.972 110.259 31.4095 108.15 32.2841 106.21C33.1031 104.407 34.2739 102.786 35.7277 101.441C37.1477 100.125 38.8004 99.085 40.6013 98.374C42.386 97.6635 44.2898 97.2995 46.2108 97.3016C48.1591 97.2952 50.0886 97.6833 51.883 98.4425C53.6687 99.1936 55.2998 100.269 56.6939 101.614C58.118 102.986 59.2539 104.629 60.0348 106.446C60.8578 108.376 61.2703 110.457 61.2461 112.556C61.2778 114.61 60.8701 116.648 60.0502 118.532C59.2303 120.416 58.0173 122.103 56.4923 123.48C55.0568 124.781 53.398 125.811 51.5959 126.522C49.8269 127.23 47.9392 127.594 46.0339 127.595C44.102 127.6 42.1881 127.222 40.4035 126.482C38.6166 125.743 36.9846 124.674 35.5927 123.331C34.1704 121.961 33.0285 120.327 32.2308 118.521C31.3915 116.586 30.9728 114.495 31.0024 112.386ZM46.1271 105.621C45.1383 105.618 44.1544 105.76 43.2064 106.041C42.2975 106.306 41.4439 106.733 40.6869 107.302C39.9429 107.864 39.339 108.59 38.9223 109.424C38.4889 110.385 38.2665 111.428 38.2701 112.483C38.2737 113.537 38.5032 114.579 38.9432 115.537C39.3704 116.383 39.9977 117.111 40.7705 117.659C41.5493 118.209 42.4162 118.621 43.3338 118.878C44.2699 119.143 45.238 119.276 46.2108 119.276C47.1928 119.279 48.17 119.137 49.1106 118.855C50.0115 118.587 50.8576 118.161 51.6092 117.596C52.3542 117.033 52.9523 116.298 53.3529 115.453C53.7904 114.506 54.0063 113.471 53.9842 112.428C54.0112 111.374 53.7801 110.33 53.3111 109.386C52.8823 108.554 52.2721 107.828 51.5255 107.264C50.7706 106.697 49.916 106.276 49.006 106.024C48.0697 105.757 47.1008 105.621 46.1271 105.621Z" fill="white"/>
<path d="M46.4146 129.443C48.2491 129.446 50.0665 129.796 51.7711 130.474C53.5368 131.166 55.1571 132.183 56.5477 133.472C58.0035 134.827 59.1681 136.464 59.9705 138.283C60.8211 140.177 61.2464 142.313 61.2464 144.691C61.2464 147.549 60.6512 150.042 59.4609 152.17C58.2705 154.299 56.6954 155.883 54.7356 156.924L50.286 150.662C51.1763 150.361 51.9634 149.815 52.5565 149.086C53.0744 148.427 53.4529 147.669 53.6688 146.859C53.8745 146.099 53.9806 145.315 53.9845 144.528C54.0115 143.472 53.7728 142.425 53.2904 141.485C52.8488 140.658 52.2237 139.943 51.4631 139.394C50.6996 138.844 49.8464 138.432 48.9417 138.175C48.0409 137.912 47.1076 137.778 46.1693 137.776C45.156 137.768 44.1478 137.92 43.182 138.226C42.2607 138.518 41.3999 138.974 40.6415 139.573C39.9043 140.153 39.3081 140.893 38.8978 141.736C38.4675 142.634 38.2514 143.618 38.2665 144.613C38.2693 145.396 38.3878 146.174 38.6183 146.922C38.8591 147.707 39.2555 148.436 39.784 149.065C40.3544 149.737 41.0934 150.245 41.9251 150.537L37.9319 157.217C36.4386 156.599 35.1449 155.581 34.1935 154.275C33.1398 152.868 32.3364 151.29 31.8185 149.611C31.2835 147.94 31.0077 146.198 31.0008 144.444C30.9777 142.346 31.4329 140.269 32.3319 138.373C33.1859 136.572 34.3849 134.957 35.8611 133.619C37.3137 132.299 38.9932 131.253 40.8184 130.531C42.5976 129.816 44.497 129.446 46.4146 129.443Z" fill="white"/>
<path d="M31.2026 160.114H61.0431V168.308H31.2026L31.2026 160.114Z" fill="white"/>
<path d="M61.0431 180.324V189.483L31.2026 198.978L31.2026 190.658L37.0422 189.116L37.0422 180.689L31.2026 179.147L31.2026 170.78L61.0431 180.324ZM42.5147 187.675L53.0187 184.903L42.5147 182.13V187.675Z" fill="white"/>
<path d="M31.2026 201.457H61.0431V209.649H38.3542L38.3542 223.178H31.2026L31.2026 201.457Z" fill="white"/>
<path d="M38.8579 251.077C37.0667 251.077 35.6088 250.594 34.4844 249.629C33.36 248.663 32.536 247.367 32.0124 245.742C31.4626 244.003 31.193 242.188 31.2138 240.364L31.2138 225.696H61.0429L61.0429 243C61.0732 244.3 60.6823 245.574 59.9286 246.634C59.1892 247.654 58.1979 248.465 57.0516 248.988C55.9083 249.526 54.6604 249.805 53.3969 249.805C51.9958 249.799 50.6203 249.43 49.4037 248.735C48.1096 248.013 47.0907 246.883 46.5058 245.521C45.9987 247.229 45.1164 248.58 43.8589 249.575C42.6014 250.57 40.9344 251.071 38.8579 251.077ZM54.0701 233.893H49.4912V239.482C49.4908 239.84 49.5552 240.196 49.6813 240.532C49.8164 240.879 50.0597 241.174 50.3754 241.372C50.7101 241.596 51.1873 241.709 51.8034 241.709C52.2632 241.732 52.7214 241.638 53.1345 241.435C53.4308 241.268 53.6725 241.019 53.8305 240.718C53.9875 240.413 54.0672 240.074 54.0624 239.731L54.0701 233.893ZM40.5407 242.758C40.9993 242.769 41.4543 242.676 41.8718 242.486C42.2296 242.32 42.5402 242.067 42.775 241.751C43.0026 241.433 43.1207 241.05 43.1116 240.659V233.893H38.1125V240.359C38.1067 240.783 38.2074 241.202 38.4053 241.577C38.5991 241.938 38.8903 242.236 39.2458 242.439C39.6413 242.657 40.0873 242.767 40.5388 242.758H40.5407Z" fill="#5627FF"/>
<path d="M38.3542 275.951H31.2026L31.2026 254.69H61.0431V275.573H53.901V262.884H49.6987V273.723H43.0605L43.0605 262.884H38.3542L38.3542 275.951Z" fill="#5627FF"/>
<path d="M53.901 303.008L53.901 294.436H31.2026L31.2026 286.244H53.901V277.63H61.0431V303.008H53.901Z" fill="#5627FF"/>
<path d="M37.3046 305.347L53.901 318.871V305.973H61.0431V328.758H54.9583L38.3618 316.07L38.3618 329H31.2026L31.2026 305.347H37.3046Z" fill="#5627FF"/>
</svg>
